<svg width="495" height="824" viewBox="0 0 495 824" fill="none" xmlns="http://www.w3.org/2000/svg">
<path d="M358.519 29.519C279.082 -10.6557 220.482 -8.95935 140.719 29.3483C119.034 38.8363 103.213 58.3819 98.257 81.8071C95.5045 97.6455 93.9405 136.154 92.6033 155.067C195.88 90.4648 299.171 90.4648 402.474 155.067C403.034 128.429 401.245 101.795 397.128 75.48C391.468 55.1869 377.37 38.4068 358.519 29.519Z" fill="#FDF4F6"/>
<path d="M495 694.453L412.374 823.527C357.181 750.557 304.958 678.754 257.042 608.98C220.69 556.36 187.307 504.614 156.568 454.305C139.381 426.392 123.185 398.491 107.988 371.452C78.7592 321.908 61.6473 265.987 58.0819 208.36C55.7952 147.937 77.4432 89.1009 118.196 44.9765C95.4247 83.6453 153.262 206.32 236.551 334.823C269.28 385.424 304.92 436.919 338.68 484.557C421.632 601.136 495 694.453 495 694.453Z" fill="#FEEFF0"/>
<path d="M347.739 497.814C322.948 537.32 295.737 578.794 266.102 622.238C229.749 569.617 175.358 487.43 144.629 437.129C172.349 397.014 199.495 356.598 224.611 317.608C257.32 368.228 314.028 450.136 347.739 497.814Z" fill="#FDF4F6"/>
<path d="M82.6244 823.607C202.949 664.673 308.325 512.247 387.09 371.373C416.16 321.814 433.217 265.963 436.858 208.412C438.842 146.598 416.797 86.4718 375.478 41.0015C429.216 131.847 0 694.603 0 694.603L82.6244 823.607Z" fill="#FEEFF0"/>
</svg>
