<svg width="20" height="20" fill="none" xmlns="http://www.w3.org/2000/svg">
    <g clip-path="url(#a)">
        <path d="M13.83 1.235H2.261A2.264 2.264 0 0 0 0 3.497v10.137c0 .48.543.75.926.477l3.222-2.299c.27-.192.588-.294.92-.294h7.085a2.264 2.264 0 0 0 2.262-2.262V1.82a.586.586 0 0 0-.586-.586zm-2.847 7.098h-6.77a.586.586 0 1 1 0-1.172h6.77a.586.586 0 0 1 0 1.172zm0-2.734h-6.77a.586.586 0 1 1 0-1.172h6.77a.586.586 0 0 1 0 1.172z" fill="url(#b)"/>
        <path d="M20 8.042v10.136c0 .477-.54.753-.926.477l-3.222-2.298a1.578 1.578 0 0 0-.92-.294H7.847A2.264 2.264 0 0 1 5.585 13.8V12.69h6.569a3.437 3.437 0 0 0 3.433-3.434V5.78h2.151A2.264 2.264 0 0 1 20 8.042z" fill="url(#c)"/>
    </g>
    <defs>
        <linearGradient id="b" x1="3.167" y1="3.433" x2="10.895" y2="9.598" gradientUnits="userSpaceOnUse">
            <stop stop-color="#10653D"/>
            <stop offset="1" stop-color="#1DBF73"/>
        </linearGradient>
        <linearGradient id="c" x1="8.752" y1="7.977" x2="16.48" y2="14.143" gradientUnits="userSpaceOnUse">
            <stop stop-color="#10653D"/>
            <stop offset="1" stop-color="#1DBF73"/>
        </linearGradient>
        <clipPath id="a">
            <path fill="#fff" d="M0 0h20v20H0z"/>
        </clipPath>
    </defs>
</svg>
