<svg width="60" height="60" fill="none" xmlns="http://www.w3.org/2000/svg">
    <path d="M51.136 12H27.652c-2.13 0-3.864 1.702-3.864 3.794v2.355h-.833a.726.726 0 0 0-.733.72c0 .396.328.718.733.718h.833v11.58c0 2.092 1.733 3.794 3.864 3.794h7.095v2.355c0 1.299-1.076 2.355-2.398 2.355H18.257a.739.739 0 0 0-.522.215l-6.491 6.374c-.013.013-.024.023-.053.012-.03-.012-.03-.028-.03-.046V40.39a.726.726 0 0 0-.732-.719H8.864c-1.323 0-2.4-1.056-2.4-2.355V21.943c0-1.299 1.077-2.355 2.4-2.355h10.959a.726.726 0 0 0 .732-.72.726.726 0 0 0-.732-.719H8.863C6.734 18.15 5 19.851 5 21.943v15.373c0 2.092 1.733 3.794 3.864 3.794h.833v5.116c0 .605.366 1.144.934 1.375a1.525 1.525 0 0 0 1.649-.323l6.28-6.168H32.35c2.13 0 3.863-1.702 3.863-3.794v-2.355h5.227l6.277 6.163a1.525 1.525 0 0 0 1.652.323c.568-.231.935-.77.935-1.375v-5.111h.833c2.13 0 3.864-1.702 3.864-3.794V15.794C55 13.702 53.267 12 51.136 12zm2.4 19.167c0 1.299-1.077 2.355-2.4 2.355h-1.565a.726.726 0 0 0-.733.72v5.83c0 .017 0 .033-.03.046-.032.013-.044.001-.056-.01l-6.492-6.375a.74.74 0 0 0-.517-.21H27.651c-1.323 0-2.4-1.058-2.4-2.356V15.794c0-1.299 1.077-2.356 2.4-2.356h23.484c1.323 0 2.4 1.057 2.4 2.356v15.373z" fill="#10653D"/>
    <path d="M39.394 16.612a4.64 4.64 0 0 0-3.717 1.825.71.71 0 0 0 .145 1.007.741.741 0 0 0 1.026-.143 3.179 3.179 0 0 1 4.779-.318c.612.6.949 1.379.949 2.192 0 1.37-.932 2.6-2.266 2.993-.986.29-1.648 1.157-1.648 2.158v.23c0 .396.328.718.732.718a.726.726 0 0 0 .732-.719v-.23c0-.36.243-.673.604-.78 1.95-.574 3.31-2.37 3.31-4.37 0-1.197-.489-2.337-1.378-3.21a4.646 4.646 0 0 0-3.268-1.353zM39.394 28.91h-.008a.723.723 0 0 0-.729.72c0 .397.332.719.737.719a.726.726 0 0 0 .732-.72.726.726 0 0 0-.732-.719zM19.874 23.48v9.224c0 .397.328.72.732.72a.726.726 0 0 0 .733-.72V23.48a.726.726 0 0 0-.733-.719.726.726 0 0 0-.732.72zM20.614 35.06h-.008a.723.723 0 0 0-.728.719c0 .397.331.719.736.719a.726.726 0 0 0 .732-.72.726.726 0 0 0-.732-.718z" fill="#10653D"/>
</svg>
