<svg width="60" height="60" fill="none" xmlns="http://www.w3.org/2000/svg">
    <path d="M29.707 48.929a.715.715 0 0 1-.541-.249c-.02-.023-2.033-2.367-4.54-5.77C19.778 36.337 14 27.15 14 20.707a15.699 15.699 0 0 1 28.504-9.092.714.714 0 1 1-1.166.826 14.27 14.27 0 0 0-25.91 8.266c0 4.724 3.675 12.308 10.347 21.357a118.348 118.348 0 0 0 3.928 5.041 115.3 115.3 0 0 0 3.933-5.04c3.772-5.116 8.558-12.446 9.955-18.337a.715.715 0 1 1 1.39.33c-1.452 6.126-6.346 13.633-10.193 18.85-2.507 3.404-4.52 5.748-4.54 5.771a.716.716 0 0 1-.541.249z" fill="#10653D"/>
    <path d="M44.571 19.468a.715.715 0 0 1-.714-.66 12.28 12.28 0 0 0-.395-1.908.714.714 0 1 1 1.385-.352c.199.693.342 1.4.429 2.116a.715.715 0 0 1-.705.804zM29.707 31.938A11.174 11.174 0 1 1 40.88 20.765a11.187 11.187 0 0 1-11.173 11.173zm0-20.917a9.745 9.745 0 1 0 9.745 9.744 9.756 9.756 0 0 0-9.745-9.745z" fill="#10653D"/>
    <path d="M38.207 27.572a.716.716 0 0 1-.581-.299 9.637 9.637 0 0 0-7.84-4.079h-.183a9.636 9.636 0 0 0-7.817 4.08.714.714 0 0 1-1.162-.831 11.198 11.198 0 0 1 8.965-4.678h.236a11.198 11.198 0 0 1 8.965 4.678.713.713 0 0 1-.583 1.129z" fill="#10653D"/>
    <path d="M29.707 23.202a4.405 4.405 0 1 1-.001-8.81 4.405 4.405 0 0 1 .001 8.81zm0-7.38a2.977 2.977 0 1 0 0 5.953 2.977 2.977 0 0 0 0-5.954zM29.707 55c-8.06 0-14.375-2.98-14.375-6.786 0-2.989 3.83-5.515 9.757-6.435a.714.714 0 1 1 .22 1.411c-5.03.782-8.548 2.848-8.548 5.024 0 2.587 5.202 5.358 12.946 5.358s12.947-2.77 12.947-5.358c0-2.176-3.516-4.242-8.548-5.024a.715.715 0 1 1 .219-1.411c5.928.92 9.757 3.446 9.757 6.435 0 3.805-6.314 6.786-14.375 6.786z" fill="#10653D"/>
</svg>
