<svg width="60" height="61" fill="none" xmlns="http://www.w3.org/2000/svg">
    <path d="M45.833 12.81h-4.166v-1.666a3.333 3.333 0 0 0-6.667 0v1.667h-6.667v-1.667a3.333 3.333 0 0 0-6.666 0v1.667H15v-1.667a3.333 3.333 0 0 0-6.667 0v1.667H4.167A4.167 4.167 0 0 0 0 16.978V50.31a4.167 4.167 0 0 0 4.167 4.167H27.5a.833.833 0 0 0 0-1.667H4.167a2.508 2.508 0 0 1-2.5-2.5V24.478h46.666v14.166a.833.833 0 1 0 1.667 0V16.978a4.167 4.167 0 0 0-4.167-4.167zm-9.166-1.666a1.667 1.667 0 0 1 3.333 0v5a1.667 1.667 0 1 1-3.333 0v-5zm-13.334 0a1.667 1.667 0 0 1 3.334 0v5a1.667 1.667 0 1 1-3.334 0v-5zm-13.333 0a1.667 1.667 0 0 1 3.333 0v5a1.667 1.667 0 0 1-3.333 0v-5zm38.333 11.667H1.667v-5.833a2.507 2.507 0 0 1 2.5-2.5h4.166v1.666a3.334 3.334 0 0 0 6.667 0v-1.666h6.667v1.666a3.334 3.334 0 0 0 6.666 0v-1.666H35v1.666a3.334 3.334 0 0 0 6.667 0v-1.666h4.166a2.508 2.508 0 0 1 2.5 2.5v5.833z" fill="#10653D"/>
    <path d="M23.333 30.311a1.667 1.667 0 0 0-1.666-1.667h-3.334a1.667 1.667 0 0 0-1.666 1.667v2.5a1.667 1.667 0 0 0 1.666 1.667h3.334a1.667 1.667 0 0 0 1.666-1.667v-2.5zm-5 2.5v-2.5h3.334v2.5h-3.334zM13.333 30.311a1.667 1.667 0 0 0-1.666-1.667H8.333a1.667 1.667 0 0 0-1.666 1.667v2.5a1.667 1.667 0 0 0 1.666 1.667h3.334a1.667 1.667 0 0 0 1.666-1.667v-2.5zm-5 2.5v-2.5h3.334v2.5H8.333zM41.667 34.478a1.667 1.667 0 0 0 1.666-1.667v-2.5a1.667 1.667 0 0 0-1.666-1.667h-3.334a1.667 1.667 0 0 0-1.666 1.667v2.5a1.667 1.667 0 0 0 1.666 1.667h3.334zm-3.334-4.167h3.334v2.5h-3.334v-2.5zM23.333 37.81a1.667 1.667 0 0 0-1.666-1.666h-3.334a1.667 1.667 0 0 0-1.666 1.667v2.5a1.667 1.667 0 0 0 1.666 1.667h3.334a1.667 1.667 0 0 0 1.666-1.667v-2.5zm-5 2.5v-2.5h3.334v2.5h-3.334zM13.333 37.81a1.667 1.667 0 0 0-1.666-1.666H8.333a1.667 1.667 0 0 0-1.666 1.667v2.5a1.667 1.667 0 0 0 1.666 1.667h3.334a1.667 1.667 0 0 0 1.666-1.667v-2.5zm-5 2.5v-2.5h3.334v2.5H8.333zM21.667 43.644h-3.334a1.667 1.667 0 0 0-1.666 1.667v2.5a1.667 1.667 0 0 0 1.666 1.667h3.334a1.667 1.667 0 0 0 1.666-1.667v-2.5a1.667 1.667 0 0 0-1.666-1.667zm-3.334 4.167v-2.5h3.334v2.5h-3.334zM28.333 34.478h3.334a1.667 1.667 0 0 0 1.666-1.667v-2.5a1.667 1.667 0 0 0-1.666-1.667h-3.334a1.667 1.667 0 0 0-1.666 1.667v2.5a1.667 1.667 0 0 0 1.666 1.667zm0-4.167h3.334v2.5h-3.334v-2.5zM26.667 40.31a1.667 1.667 0 0 0 1.666 1.668.833.833 0 0 0 0-1.667v-2.5h3.334a.833.833 0 1 0 0-1.667h-3.334a1.667 1.667 0 0 0-1.666 1.667v2.5zM11.667 43.644H8.333a1.667 1.667 0 0 0-1.666 1.667v2.5a1.667 1.667 0 0 0 1.666 1.667h3.334a1.667 1.667 0 0 0 1.666-1.667v-2.5a1.667 1.667 0 0 0-1.666-1.667zm-3.334 4.167v-2.5h3.334v2.5H8.333z" fill="#10653D"/>
    <path d="M39.167 36.144A10.833 10.833 0 1 0 50 46.978a10.846 10.846 0 0 0-10.833-10.834zm0 20a9.167 9.167 0 1 1 9.166-9.166 9.178 9.178 0 0 1-9.166 9.166z" fill="#10653D"/>
    <path d="M43.982 43.484 37.5 49.966l-2.946-2.947a.833.833 0 0 0-1.178 1.178l3.535 3.536a.833.833 0 0 0 1.178 0l7.071-7.07a.833.833 0 0 0-1.178-1.179z" fill="#10653D"/>
</svg>
