<svg width="60" height="61" fill="none" xmlns="http://www.w3.org/2000/svg">
    <g clip-path="url(#a)" fill="#10653D">
        <path d="M39.338 24.977c0-3.399-2.224-8.79-8.19-8.79-2.452 0-4.514 1.156-6.148 3.44-1.634-2.284-3.696-3.44-6.148-3.44-5.966 0-8.19 5.391-8.19 8.79 0 5.858 4.573 9.523 10.82 14.865.917.784 1.866 1.596 2.878 2.474a.974.974 0 0 0 1.28 0c1.012-.878 1.961-1.69 2.879-2.474 6.54-5.593 10.819-9.13 10.819-14.865zM25 40.287c-.78-.674-1.525-1.31-2.25-1.93-6.535-5.588-10.135-8.667-10.135-13.38 0-3.198 2.092-6.836 6.237-6.836 2.164 0 3.895 1.242 5.291 3.797a.976.976 0 0 0 1.714 0c1.396-2.555 3.127-3.797 5.29-3.797 4.088 0 6.238 3.584 6.238 6.836 0 4.713-3.6 7.792-10.135 13.38-.725.62-1.47 1.256-2.25 1.93zM7.017 54.48l4.702 2.35v5.256c0 .54.437.977.976.977h10.352c.54 0 .976-.438.976-.977v-12.75a5.78 5.78 0 0 0-5.213-5.77l-.08-.009c-1.718-.172-4.761-1.347-5.963-2.549l-2.193-2.192a3.88 3.88 0 0 0-2.761-1.144v-7.813a3.91 3.91 0 0 0-3.907-3.906A3.91 3.91 0 0 0 0 29.86v13.266c0 4.806 2.715 9.203 7.017 11.355zM1.953 29.86c0-1.078.876-1.954 1.953-1.954s1.953.876 1.953 1.953v8.336a3.914 3.914 0 0 0-1.953 3.383 3.88 3.88 0 0 0 1.145 2.762l5 5.002a.977.977 0 1 0 1.382-1.381l-5.001-5.002a1.94 1.94 0 0 1-.573-1.38 1.956 1.956 0 0 1 1.303-1.843 1.95 1.95 0 0 1 2.031.462l2.194 2.192c2.264 2.264 7.21 3.116 7.22 3.119a3.835 3.835 0 0 1 3.463 3.828v11.772h-8.398v-4.882c0-.37-.21-.708-.54-.874l-5.241-2.62a10.685 10.685 0 0 1-5.938-9.608V29.859zM44.824 53.102a.977.977 0 1 0 0-1.954.977.977 0 0 0 0 1.954z"/>
        <path d="M46.094 25.953a3.91 3.91 0 0 0-3.907 3.906v7.813a3.88 3.88 0 0 0-2.761 1.144l-2.194 2.193c-1.2 1.201-4.244 2.376-5.97 2.55l-.064.006a5.782 5.782 0 0 0-5.221 5.772v12.749c0 .54.437.977.976.977h10.352c.539 0 .976-.438.976-.977V56.83l3.197-1.598a.977.977 0 0 0-.874-1.747l-3.736 1.868a.977.977 0 0 0-.54.874v4.882H27.93V49.337a3.837 3.837 0 0 1 3.47-3.829l.065-.007c2.118-.212 5.625-1.588 7.148-3.111l2.194-2.193c.56-.56 1.36-.699 2.03-.461h.001a1.956 1.956 0 0 1 .73 3.223l-5 5.002a.977.977 0 1 0 1.38 1.38l5.001-5.001a3.88 3.88 0 0 0 1.145-2.762c0-1.41-.762-2.694-1.953-3.383V29.86c0-1.077.876-1.953 1.953-1.953s1.953.876 1.953 1.953v13.266c0 1.787-.451 3.56-1.304 5.13a.976.976 0 1 0 1.716.933A12.73 12.73 0 0 0 50 43.125V29.859a3.91 3.91 0 0 0-3.906-3.906z"/>
    </g>
    <defs>
        <clipPath id="a">
            <path fill="#fff" transform="translate(0 .188)" d="M0 0h60v60H0z"/>
        </clipPath>
    </defs>
</svg>
