<svg width="60" height="61" fill="none" xmlns="http://www.w3.org/2000/svg">
    <path d="M49.924 29.792a.733.733 0 0 0-.657-.407h-8.3V24.55a.742.742 0 0 0-.214-.518l-6.365-6.364a.746.746 0 0 0-.518-.215h-6.338L25.707 8.4a.733.733 0 0 0-.862-.573l-12.208 2.459a.732.732 0 1 0 .289 1.436l11.49-2.315 1.621 8.048h-2.596l-.873-4.332a.732.732 0 0 0-.863-.573l-12.814 2.58a.732.732 0 0 0-.573.864l2.698 13.392H8.42L5.175 13.282l3.244-.653a.732.732 0 1 0-.289-1.436l-3.962.798a.732.732 0 0 0-.574.862l3.331 16.532H.73c-.595 0-.943.702-.583 1.175l5.675 7.47v17.095a2.689 2.689 0 0 0 2.686 2.686h33.157a2.689 2.689 0 0 0 2.686-2.686v-3.564c0-.947-1.465-.947-1.465 0v3.564c0 .674-.548 1.221-1.22 1.221H30.88v-17.83h12.004v8.879c0 .947 1.465.947 1.465 0V37.8l5.5-7.24a.733.733 0 0 0 .074-.768zm-19.468 7.186-5.549-7.304a.732.732 0 0 0-.583-.29h-3.066V18.92h11.88v5.632c0 .404.328.732.732.732h5.632v11.695h-9.046zm6.079-15.092 1.932 1.932h-3.864v-3.863l1.932 1.931zM9.899 16.421l11.377-2.292.67 3.325h-1.42a.732.732 0 0 0-.732.733v11.198H12.51L9.899 16.421zM23.96 30.85l4.656 6.128H6.861L2.205 30.85H23.96zM7.286 55.126v-16.61h22.13v17.83H8.506c-.672 0-1.22-.547-1.22-1.22zm35.85-18.148h-2.169V30.85h6.824l-4.656 6.128z" fill="#10653D"/>
</svg>
