<svg width="100" height="101" fill="none" xmlns="http://www.w3.org/2000/svg">
    <path d="M99.583 17.688c-.416-.417-.833-.834-1.666-.834H18.75L16.667 6.021c0-.833-1.25-1.667-2.084-1.667h-12.5C.833 4.354 0 5.188 0 6.438S.833 8.52 2.083 8.52h10.834l10 50.833c1.25 6.667 7.5 11.667 14.166 11.667H85c1.25 0 2.083-.833 2.083-2.083 0-1.25-.833-2.084-2.083-2.084H37.5c-3.333 0-6.667-1.666-8.333-4.583L90 53.938c.833 0 1.667-.834 1.667-1.667L100 18.938s0-.834-.417-1.25zm-11.666 32.5-60.834 7.916-7.5-37.5H95l-7.083 29.584zM35.417 75.188C29.583 75.188 25 79.77 25 85.603c0 5.834 4.583 10.417 10.417 10.417 5.833 0 10.416-4.584 10.416-10.417S41.25 75.188 35.417 75.188zm0 16.666c-3.334 0-6.25-2.917-6.25-6.25s2.916-6.25 6.25-6.25c3.333 0 6.25 2.917 6.25 6.25s-2.917 6.25-6.25 6.25zM77.083 75.188c-5.833 0-10.416 4.583-10.416 10.416 0 5.834 4.583 10.417 10.416 10.417 5.834 0 10.417-4.584 10.417-10.417s-4.583-10.416-10.417-10.416zm0 16.666c-3.333 0-6.25-2.917-6.25-6.25s2.917-6.25 6.25-6.25c3.334 0 6.25 2.917 6.25 6.25s-2.916 6.25-6.25 6.25z" fill="#fff"/>
</svg>
